<mxfile host="65bd71144e">
    <diagram id="3HG0qha0nCU5UmWaBOxQ" name="Page-1">
        <mxGraphModel dx="734" dy="830" grid="1" gridSize="10" guides="1" tooltips="1" connect="1" arrows="1" fold="1" page="1" pageScale="1" pageWidth="850" pageHeight="1100" background="none" math="0" shadow="1">
            <root>
                <mxCell id="0"/>
                <mxCell id="1" parent="0"/>
                <mxCell id="2" value="&lt;font style=&quot;font-size: 22px&quot;&gt;&lt;span&gt;&lt;span&gt;ISP&lt;/span&gt;&lt;/span&gt;&lt;/font&gt;" style="text;html=1;strokeColor=none;fillColor=none;align=center;verticalAlign=middle;rounded=0;shadow=1;whiteSpace=wrap;labelBackgroundColor=none;labelBorderColor=none;fontStyle=3;fontColor=#FFCCE6;" vertex="1" parent="1">
                    <mxGeometry x="60" y="50" width="40" height="20" as="geometry"/>
                </mxCell>
                <mxCell id="13" value="" style="endArrow=none;html=1;fillColor=#FAE5C7;entryX=0.5;entryY=1;entryDx=0;entryDy=0;exitX=0.5;exitY=0;exitDx=0;exitDy=0;exitPerimeter=0;strokeWidth=3;labelBackgroundColor=none;shadow=1;labelBorderColor=none;fontStyle=3;strokeColor=#FFCCE6;fontColor=#FFCCE6;" edge="1" parent="1" source="11" target="2">
                    <mxGeometry width="50" height="50" relative="1" as="geometry">
                        <mxPoint x="140" y="280" as="sourcePoint"/>
                        <mxPoint x="190" y="230" as="targetPoint"/>
                    </mxGeometry>
                </mxCell>
                <mxCell id="14" value="" style="endArrow=none;html=1;fillColor=#FAE5C7;exitX=0;exitY=0.5;exitDx=0;exitDy=0;exitPerimeter=0;strokeWidth=3;labelBackgroundColor=none;shadow=1;labelBorderColor=none;fontStyle=3;strokeColor=#FFCCE6;fontColor=#FFCCE6;" edge="1" parent="1" source="7" target="11">
                    <mxGeometry width="50" height="50" relative="1" as="geometry">
                        <mxPoint x="90" y="170" as="sourcePoint"/>
                        <mxPoint x="90" y="80" as="targetPoint"/>
                    </mxGeometry>
                </mxCell>
                <mxCell id="15" value="" style="endArrow=none;html=1;fillColor=#FAE5C7;exitX=0;exitY=0.5;exitDx=0;exitDy=0;exitPerimeter=0;strokeWidth=3;entryX=1;entryY=0.5;entryDx=0;entryDy=0;entryPerimeter=0;labelBackgroundColor=none;shadow=1;labelBorderColor=none;fontStyle=3;strokeColor=#FFCCE6;fontColor=#FFCCE6;" edge="1" parent="1" source="6" target="7">
                    <mxGeometry width="50" height="50" relative="1" as="geometry">
                        <mxPoint x="190" y="185" as="sourcePoint"/>
                        <mxPoint x="280" y="175" as="targetPoint"/>
                    </mxGeometry>
                </mxCell>
                <mxCell id="16" value="" style="endArrow=none;html=1;fillColor=#FAE5C7;exitX=0;exitY=0.5;exitDx=0;exitDy=0;exitPerimeter=0;strokeWidth=3;entryX=0.95;entryY=0.05;entryDx=0;entryDy=0;entryPerimeter=0;labelBackgroundColor=none;shadow=1;labelBorderColor=none;fontStyle=3;strokeColor=#FFCCE6;fontColor=#FFCCE6;" edge="1" parent="1" source="3" target="6">
                    <mxGeometry width="50" height="50" relative="1" as="geometry">
                        <mxPoint x="335" y="185" as="sourcePoint"/>
                        <mxPoint x="290" y="185" as="targetPoint"/>
                    </mxGeometry>
                </mxCell>
                <mxCell id="17" value="" style="endArrow=none;html=1;fillColor=#FAE5C7;exitX=0;exitY=0.5;exitDx=0;exitDy=0;exitPerimeter=0;strokeWidth=3;entryX=0.9;entryY=1;entryDx=0;entryDy=0;entryPerimeter=0;labelBackgroundColor=none;shadow=1;labelBorderColor=none;fontStyle=3;rounded=1;strokeColor=#FFCCE6;fontColor=#FFCCE6;" edge="1" parent="1" source="5" target="6">
                    <mxGeometry width="50" height="50" relative="1" as="geometry">
                        <mxPoint x="580" y="105" as="sourcePoint"/>
                        <mxPoint x="430" y="171.5" as="targetPoint"/>
                    </mxGeometry>
                </mxCell>
                <mxCell id="18" value="" style="endArrow=none;html=1;fillColor=#FAE5C7;exitX=0;exitY=0.5;exitDx=0;exitDy=0;exitPerimeter=0;strokeWidth=3;entryX=1;entryY=0.5;entryDx=0;entryDy=0;entryPerimeter=0;labelBackgroundColor=none;shadow=1;labelBorderColor=none;fontStyle=3;strokeColor=#FFCCE6;fontColor=#FFCCE6;" edge="1" parent="1" source="4" target="6">
                    <mxGeometry width="50" height="50" relative="1" as="geometry">
                        <mxPoint x="580" y="275" as="sourcePoint"/>
                        <mxPoint x="425" y="200" as="targetPoint"/>
                    </mxGeometry>
                </mxCell>
                <mxCell id="19" value="" style="endArrow=none;html=1;fillColor=#FAE5C7;exitX=0.5;exitY=0;exitDx=0;exitDy=0;exitPerimeter=0;strokeWidth=3;entryX=0.9;entryY=1;entryDx=0;entryDy=0;entryPerimeter=0;labelBackgroundColor=none;shadow=1;labelBorderColor=none;fontStyle=3;strokeColor=#FFCCE6;fontColor=#FFCCE6;" edge="1" parent="1" source="10" target="6">
                    <mxGeometry width="50" height="50" relative="1" as="geometry">
                        <mxPoint x="590" y="285" as="sourcePoint"/>
                        <mxPoint x="435" y="210" as="targetPoint"/>
                    </mxGeometry>
                </mxCell>
                <mxCell id="20" value="" style="endArrow=none;html=1;fillColor=#FAE5C7;exitX=0.5;exitY=0;exitDx=0;exitDy=0;exitPerimeter=0;strokeWidth=3;entryX=0.5;entryY=1;entryDx=0;entryDy=0;entryPerimeter=0;labelBackgroundColor=none;shadow=1;labelBorderColor=none;fontStyle=3;strokeColor=#FFCCE6;fontColor=#FFCCE6;" edge="1" parent="1" source="9" target="6">
                    <mxGeometry width="50" height="50" relative="1" as="geometry">
                        <mxPoint x="535" y="360" as="sourcePoint"/>
                        <mxPoint x="425" y="200" as="targetPoint"/>
                    </mxGeometry>
                </mxCell>
                <mxCell id="22" value="" style="endArrow=none;dashed=1;html=1;strokeWidth=3;fillColor=#FAE5C7;exitX=1;exitY=0.5;exitDx=0;exitDy=0;exitPerimeter=0;entryX=0;entryY=0.5;entryDx=0;entryDy=0;entryPerimeter=0;labelBackgroundColor=none;shadow=1;labelBorderColor=none;fontStyle=3;strokeColor=#FFCCE6;fontColor=#FFCCE6;" edge="1" parent="1" source="8" target="23">
                    <mxGeometry width="50" height="50" relative="1" as="geometry">
                        <mxPoint x="170" y="410" as="sourcePoint"/>
                        <mxPoint x="150" y="320" as="targetPoint"/>
                    </mxGeometry>
                </mxCell>
                <mxCell id="24" value="" style="endArrow=none;html=1;fillColor=#FAE5C7;exitX=0.5;exitY=0;exitDx=0;exitDy=0;exitPerimeter=0;strokeWidth=3;entryX=0.1;entryY=1;entryDx=0;entryDy=0;entryPerimeter=0;labelBackgroundColor=none;shadow=1;labelBorderColor=none;fontStyle=3;strokeColor=#FFCCE6;fontColor=#FFCCE6;" edge="1" parent="1" source="23" target="6">
                    <mxGeometry width="50" height="50" relative="1" as="geometry">
                        <mxPoint x="445" y="360" as="sourcePoint"/>
                        <mxPoint x="385" y="200" as="targetPoint"/>
                    </mxGeometry>
                </mxCell>
                <mxCell id="25" value="&lt;font style=&quot;font-size: 22px&quot;&gt;&lt;span&gt;&lt;span&gt;DSL Modem&lt;/span&gt;&lt;/span&gt;&lt;/font&gt;" style="text;html=1;strokeColor=none;fillColor=none;align=center;verticalAlign=middle;rounded=0;shadow=1;whiteSpace=wrap;labelBackgroundColor=none;labelBorderColor=none;fontStyle=3;fontColor=#FFCCE6;" vertex="1" parent="1">
                    <mxGeometry x="60" y="210" width="40" height="20" as="geometry"/>
                </mxCell>
                <mxCell id="27" value="&lt;font style=&quot;font-size: 22px&quot;&gt;&lt;span&gt;&lt;span&gt;Access Router w/ Built-In Firewall&lt;/span&gt;&lt;/span&gt;&lt;/font&gt;" style="text;html=1;strokeColor=none;fillColor=none;align=center;verticalAlign=middle;rounded=0;shadow=1;whiteSpace=wrap;labelBackgroundColor=none;labelBorderColor=none;fontStyle=3;fontColor=#FFCCE6;" vertex="1" parent="1">
                    <mxGeometry x="165" y="70" width="130" height="50" as="geometry"/>
                </mxCell>
                <mxCell id="28" value="&lt;font style=&quot;font-size: 22px&quot;&gt;&lt;span&gt;&lt;span&gt;Ethernet Switch&lt;/span&gt;&lt;/span&gt;&lt;/font&gt;" style="text;html=1;strokeColor=none;fillColor=none;align=center;verticalAlign=middle;rounded=0;shadow=1;whiteSpace=wrap;labelBackgroundColor=none;labelBorderColor=none;fontStyle=3;glass=0;fontColor=#FFCCE6;" vertex="1" parent="1">
                    <mxGeometry x="310" y="100" width="130" height="50" as="geometry"/>
                </mxCell>
                <mxCell id="29" value="&lt;font style=&quot;font-size: 22px&quot;&gt;&lt;span&gt;&lt;span&gt;Print Server&lt;br&gt;&lt;/span&gt;&lt;/span&gt;&lt;/font&gt;" style="text;html=1;strokeColor=none;fillColor=none;align=center;verticalAlign=middle;rounded=0;shadow=1;whiteSpace=wrap;labelBackgroundColor=none;labelBorderColor=none;fontStyle=3;fontColor=#FFCCE6;" vertex="1" parent="1">
                    <mxGeometry x="210" y="470" width="40" height="20" as="geometry"/>
                </mxCell>
                <mxCell id="30" value="&lt;font style=&quot;font-size: 22px&quot;&gt;&lt;span&gt;&lt;span&gt;Laser Printer&lt;br&gt;&lt;/span&gt;&lt;/span&gt;&lt;/font&gt;" style="text;html=1;strokeColor=none;fillColor=none;align=center;verticalAlign=middle;rounded=0;shadow=1;whiteSpace=wrap;labelBackgroundColor=none;labelBorderColor=none;fontStyle=3;fontColor=#FFCCE6;" vertex="1" parent="1">
                    <mxGeometry x="60" y="470" width="40" height="20" as="geometry"/>
                </mxCell>
                <mxCell id="3" value="" style="verticalAlign=top;verticalLabelPosition=bottom;labelPosition=center;align=center;html=1;outlineConnect=0;fillColor=#FAE5C7;gradientDirection=north;strokeWidth=2;shape=mxgraph.networks.pc;rounded=0;sketch=0;shadow=1;whiteSpace=wrap;labelBackgroundColor=none;labelBorderColor=none;fontStyle=3;strokeColor=#000000;fontColor=#FFCCE6;" vertex="1" parent="1">
                    <mxGeometry x="570" y="60" width="100" height="70" as="geometry"/>
                </mxCell>
                <mxCell id="4" value="" style="verticalAlign=top;verticalLabelPosition=bottom;labelPosition=center;align=center;html=1;outlineConnect=0;fillColor=#FAE5C7;gradientDirection=north;strokeWidth=2;shape=mxgraph.networks.pc;rounded=0;sketch=0;shadow=1;whiteSpace=wrap;labelBackgroundColor=none;labelBorderColor=none;fontStyle=3;strokeColor=#000000;fontColor=#FFCCE6;" vertex="1" parent="1">
                    <mxGeometry x="570" y="150" width="100" height="70" as="geometry"/>
                </mxCell>
                <mxCell id="5" value="" style="verticalAlign=top;verticalLabelPosition=bottom;labelPosition=center;align=center;html=1;outlineConnect=0;fillColor=#FAE5C7;gradientDirection=north;strokeWidth=2;shape=mxgraph.networks.pc;rounded=0;sketch=0;shadow=1;whiteSpace=wrap;labelBackgroundColor=none;labelBorderColor=none;fontStyle=3;strokeColor=#000000;fontColor=#FFCCE6;" vertex="1" parent="1">
                    <mxGeometry x="570" y="230" width="100" height="70" as="geometry"/>
                </mxCell>
                <mxCell id="6" value="" style="verticalAlign=top;verticalLabelPosition=bottom;labelPosition=center;align=center;html=1;outlineConnect=0;fillColor=#FAE5C7;gradientDirection=north;strokeWidth=2;shape=mxgraph.networks.switch;rounded=0;sketch=0;shadow=1;whiteSpace=wrap;labelBackgroundColor=none;labelBorderColor=none;fontStyle=3;strokeColor=#000000;fontColor=#FFCCE6;" vertex="1" parent="1">
                    <mxGeometry x="325" y="160" width="100" height="30" as="geometry"/>
                </mxCell>
                <mxCell id="7" value="" style="verticalAlign=top;verticalLabelPosition=bottom;labelPosition=center;align=center;html=1;outlineConnect=0;fillColor=#FAE5C7;gradientDirection=north;strokeWidth=2;shape=mxgraph.networks.router;rounded=0;sketch=0;shadow=1;whiteSpace=wrap;labelBackgroundColor=none;labelBorderColor=none;fontStyle=3;strokeColor=#000000;fontColor=#FFCCE6;" vertex="1" parent="1">
                    <mxGeometry x="180" y="160" width="100" height="30" as="geometry"/>
                </mxCell>
                <mxCell id="8" value="" style="verticalAlign=top;verticalLabelPosition=bottom;labelPosition=center;align=center;html=1;outlineConnect=0;fillColor=#FAE5C7;gradientDirection=north;strokeWidth=2;shape=mxgraph.networks.printer;rounded=0;sketch=0;shadow=1;whiteSpace=wrap;labelBackgroundColor=none;labelBorderColor=none;fontStyle=3;strokeColor=#000000;fontColor=#FFCCE6;" vertex="1" parent="1">
                    <mxGeometry x="30" y="340" width="100" height="100" as="geometry"/>
                </mxCell>
                <mxCell id="9" value="" style="verticalAlign=top;verticalLabelPosition=bottom;labelPosition=center;align=center;html=1;outlineConnect=0;fillColor=#FAE5C7;gradientDirection=north;strokeWidth=2;shape=mxgraph.networks.rack;rounded=0;sketch=0;shadow=1;whiteSpace=wrap;labelBackgroundColor=none;labelBorderColor=none;fontStyle=3;strokeColor=#000000;fontColor=#FFCCE6;" vertex="1" parent="1">
                    <mxGeometry x="410" y="350" width="50" height="100" as="geometry"/>
                </mxCell>
                <mxCell id="10" value="" style="verticalAlign=top;verticalLabelPosition=bottom;labelPosition=center;align=center;html=1;outlineConnect=0;fillColor=#FAE5C7;gradientDirection=north;strokeWidth=2;shape=mxgraph.networks.rack;rounded=0;sketch=0;shadow=1;whiteSpace=wrap;labelBackgroundColor=none;labelBorderColor=none;fontStyle=3;strokeColor=#000000;fontColor=#FFCCE6;" vertex="1" parent="1">
                    <mxGeometry x="500" y="350" width="50" height="100" as="geometry"/>
                </mxCell>
                <mxCell id="11" value="" style="verticalAlign=top;verticalLabelPosition=bottom;labelPosition=center;align=center;html=1;outlineConnect=0;fillColor=#FAE5C7;gradientDirection=north;strokeWidth=2;shape=mxgraph.networks.hub;rounded=0;sketch=0;shadow=1;whiteSpace=wrap;labelBackgroundColor=none;labelBorderColor=none;fontStyle=3;strokeColor=#000000;fontColor=#FFCCE6;" vertex="1" parent="1">
                    <mxGeometry x="30" y="160" width="100" height="30" as="geometry"/>
                </mxCell>
                <mxCell id="23" value="" style="verticalAlign=top;verticalLabelPosition=bottom;labelPosition=center;align=center;html=1;outlineConnect=0;fillColor=#FAE5C7;gradientDirection=north;strokeWidth=2;shape=mxgraph.networks.virtual_server;rounded=0;sketch=0;shadow=1;whiteSpace=wrap;labelBackgroundColor=none;labelBorderColor=none;fontStyle=3;strokeColor=#000000;fontColor=#FFCCE6;" vertex="1" parent="1">
                    <mxGeometry x="175" y="330" width="110" height="120" as="geometry"/>
                </mxCell>
            </root>
        </mxGraphModel>
    </diagram>
</mxfile>